<svg width="164" height="162" viewBox="0 0 164 162" fill="none" xmlns="http://www.w3.org/2000/svg">
<g clip-path="url(#clip0_304_558)">
<path d="M84.1922 1.0086C85.344 1.66199 86.306 2.40412 87.3052 3.26299C87.5959 3.51211 87.5959 3.51211 87.8924 3.76626C95.1724 10.1215 102.103 19.1456 102.89 29.0351C103.309 39.0185 99.9171 47.2806 93.211 54.7383C93.058 54.9085 92.905 55.0787 92.7474 55.254C92.2509 55.8034 91.751 56.3494 91.2491 56.8938C91.0957 57.0607 90.9424 57.2276 90.7844 57.3996C89.5276 58.7399 89.5276 58.7399 88.7921 59.2523C87.907 59.8757 87.2403 60.3687 86.922 61.4218C86.8493 62.2361 86.8475 63.0239 86.8705 63.841C86.87 64.2997 86.87 64.2997 86.8695 64.7677C86.8711 65.7747 86.8885 66.7808 86.9061 67.7876C86.9103 68.4872 86.9135 69.1868 86.9157 69.8864C86.9242 71.7248 86.9463 73.5628 86.9711 75.4011C86.994 77.2781 87.0043 79.1551 87.0156 81.0322C87.0396 84.7131 87.0778 88.3936 87.125 92.0743C88.4956 90.8096 89.8532 89.5331 91.2009 88.2447C91.66 87.8091 92.1224 87.3767 92.5881 86.9479C95.7961 84.1447 95.7961 84.1447 97.3234 80.3331C97.3721 78.7315 97.1246 77.1793 96.8494 75.6041C96.6558 74.0344 96.8861 72.5468 97.1348 70.9937C97.1787 70.7059 97.2226 70.4182 97.2679 70.1217C98.6523 61.5427 102.145 53.8632 109.227 48.4102C117.121 42.8126 127.101 41.502 136.593 41.8448C137.097 41.8629 137.097 41.8629 137.611 41.8815C142.154 42.1048 142.154 42.1048 143.6 43.5455C143.826 43.7571 143.826 43.7571 144.057 43.9731C145.143 45.693 145.202 47.7948 145.209 49.7661C145.212 50.0098 145.215 50.2534 145.217 50.5045C145.224 51.2896 145.224 52.0745 145.222 52.8597C145.221 53.2623 145.221 53.2623 145.221 53.673C145.193 63.0873 143.342 72.5265 136.773 79.7344C136.588 79.9469 136.403 80.1594 136.212 80.3784C130.91 86.0673 122.992 88.4533 115.473 89.4639C115.043 89.5246 115.043 89.5246 114.606 89.5866C114.307 89.6228 114.009 89.659 113.701 89.6963C113.366 89.7373 113.031 89.7784 112.685 89.8206C111.667 89.8531 110.882 89.7804 109.891 89.6152C106.829 89.1997 104.464 89.3688 101.923 91.2363C99.7028 92.9565 97.7045 94.9191 95.7418 96.9163C95.1704 97.4952 94.5922 98.0666 94.0122 98.6372C88.0798 104.417 88.0798 104.417 85.833 112.108C85.8852 114.38 86.2359 116.449 86.8047 118.652C83.6336 118.652 80.4625 118.652 77.1954 118.652C77.3692 117.979 77.543 117.306 77.7221 116.612C78.4337 112.799 78.4431 108.861 76.1673 105.543C74.1717 102.83 71.8067 100.426 69.4063 98.0651C68.8301 97.4956 68.2615 96.9196 67.6938 96.3419C63.0495 91.4213 63.0495 91.4213 56.8497 89.361C55.6424 89.4164 54.4688 89.5506 53.2777 89.7507C52.283 89.8956 51.3626 89.8328 50.3667 89.7185C50.0781 89.6856 49.7894 89.6527 49.4921 89.6188C49.2134 89.5807 48.9347 89.5427 48.6475 89.5035C48.3333 89.4619 48.0191 89.4204 47.6953 89.3776C39.5625 88.2074 31.6811 85.1522 26.2657 78.7852C23.2222 74.6515 21.1425 70.1296 19.8594 65.1797C19.806 64.9758 19.7527 64.7719 19.6977 64.5618C18.7662 60.7516 18.7984 56.8547 18.7784 52.9585C18.7758 52.6933 18.7733 52.4281 18.7706 52.1548C18.7217 45.5125 18.7217 45.5125 20.7203 43.2093C24.7575 40.1974 33.6422 41.6383 38.3384 42.2848C45.1323 43.329 51.833 45.7466 57.0157 50.3086C57.3805 50.6243 57.3805 50.6243 57.7526 50.9464C63.5036 56.2446 65.8739 64.0273 66.9454 71.5079C67.0035 71.8758 67.0035 71.8758 67.0629 72.2511C67.2598 73.7126 67.2543 74.9291 66.9591 76.3776C66.5615 78.7096 66.2786 81.1527 67.6926 83.2004C69.0313 84.7963 70.5716 86.1923 72.1066 87.6001C72.5678 88.0367 73.0281 88.4741 73.4876 88.9125C74.607 89.977 75.7375 91.0287 76.875 92.0743C76.9643 88.0504 77.0325 84.0267 77.0742 80.0021C77.0942 78.133 77.1213 76.2645 77.165 74.3958C77.2069 72.5903 77.2298 70.7855 77.2397 68.9797C77.2468 68.2927 77.2606 67.6058 77.2814 66.9192C77.5428 63.029 77.5428 63.029 76.0501 59.5885C75.1345 58.6869 74.096 57.9911 73.0313 57.2696C66.6896 51.1705 61.1896 42.2178 61.0578 33.2807C61.0747 23.7998 64.5775 16.0546 70.9869 9.02968C71.4266 8.5465 71.8583 8.05726 72.2893 7.56661C73.809 5.85841 75.406 4.28794 77.1553 2.80816C77.3268 2.66209 77.4983 2.51602 77.675 2.36553C79.6457 0.744837 81.7409 -0.00254583 84.1922 1.0086Z" fill="white"/>
<path d="M52.5312 127.828C66.1168 127.799 79.7023 127.777 93.2879 127.764C94.8917 127.762 96.4954 127.76 98.0991 127.759C98.4184 127.758 98.7377 127.758 99.0667 127.758C104.237 127.752 109.407 127.742 114.578 127.731C119.882 127.719 125.187 127.712 130.492 127.709C133.766 127.707 137.039 127.702 140.313 127.692C142.558 127.685 144.802 127.683 147.047 127.685C148.342 127.685 149.637 127.684 150.932 127.677C152.119 127.671 153.305 127.671 154.491 127.675C155.122 127.676 155.754 127.67 156.385 127.665C158.65 127.68 160.16 127.871 162.078 129.094C163.507 130.58 164.084 131.749 164.063 133.795C164.06 134.148 164.058 134.501 164.056 134.864C164.051 135.231 164.046 135.598 164.04 135.976C164.037 136.347 164.034 136.719 164.031 137.102C164.024 138.018 164.013 138.935 164 139.852C151.282 139.946 138.565 140.018 125.847 140.062C124.345 140.067 122.843 140.072 121.341 140.078C121.042 140.079 120.743 140.08 120.435 140.081C115.596 140.099 110.756 140.131 105.917 140.169C100.95 140.207 95.9831 140.23 91.0162 140.239C87.9519 140.244 84.8881 140.262 81.8239 140.295C79.7219 140.317 77.6202 140.324 75.5181 140.318C74.3055 140.316 73.0939 140.32 71.8815 140.342C64.2201 140.475 64.2201 140.475 62.4773 138.944C61.6213 137.975 61.0791 136.907 60.5391 135.738C60.0617 135.104 60.0617 135.104 59.5681 134.606C59.3072 134.327 59.0462 134.048 58.7773 133.761C57.4312 132.324 56.0095 130.991 54.5144 129.707C53.825 129.105 53.179 128.474 52.5312 127.828Z" fill="white"/>
<path d="M68.8672 149.344C100.261 149.344 131.655 149.344 164 149.344C164 157.254 164 157.254 162.719 159.469C161.294 160.804 159.916 161.446 157.949 161.446C157.64 161.447 157.331 161.449 157.013 161.45C156.677 161.449 156.34 161.447 155.993 161.445C155.634 161.446 155.274 161.447 154.904 161.448C153.697 161.45 152.489 161.447 151.282 161.444C150.418 161.444 149.553 161.445 148.689 161.446C146.584 161.447 144.479 161.446 142.374 161.443C139.924 161.439 137.474 161.439 135.024 161.44C130.654 161.44 126.284 161.437 121.915 161.432C117.671 161.428 113.427 161.426 109.184 161.426C108.791 161.426 108.791 161.426 108.391 161.426C108.13 161.426 107.869 161.426 107.6 161.426C102.772 161.426 97.9449 161.424 93.1174 161.421C91.4078 161.42 89.6983 161.42 87.9888 161.42C85.9077 161.42 83.8266 161.418 81.7455 161.415C80.6828 161.414 79.6202 161.413 78.5575 161.413C77.4082 161.414 76.259 161.412 75.1097 161.409C74.7702 161.41 74.4307 161.41 74.081 161.411C73.7756 161.41 73.4702 161.409 73.1556 161.408C72.89 161.408 72.6244 161.407 72.3507 161.407C71.75 161.367 71.75 161.367 71.4297 161.051C71.2861 160.208 71.1552 159.365 71.0293 158.52C70.6256 155.941 69.9753 153.501 69.1837 151.015C68.8672 149.977 68.8672 149.977 68.8672 149.344Z" fill="white"/>
<path d="M6.65728 127.741C6.86956 127.74 7.08183 127.738 7.30054 127.736C8.00095 127.732 8.70126 127.732 9.40168 127.733C9.89469 127.732 10.3877 127.73 10.8807 127.729C11.9163 127.727 12.9518 127.727 13.9874 127.728C15.0379 127.73 16.0884 127.728 17.1389 127.722C30.2147 127.65 41.0921 129.406 50.9297 138.586C51.17 138.803 51.4103 139.02 51.6579 139.244C57.1153 144.351 61.0455 151.791 62.1406 159.152C62.1406 159.883 62.1406 160.614 62.1406 161.367C58.0182 161.367 53.8958 161.367 49.6484 161.367C49.3313 160.114 49.0142 158.861 48.6875 157.57C48.3173 156.628 47.9499 155.745 47.5064 154.841C47.3958 154.613 47.2852 154.384 47.1713 154.149C46.2097 152.231 45.0415 150.596 43.5625 149.027C43.176 148.616 43.176 148.616 42.7817 148.197C42.5109 147.949 42.24 147.701 41.9609 147.445C41.7694 147.258 41.5778 147.071 41.3804 146.878C37.4599 143.198 32.4805 141.006 27.1147 140.451C26.8654 140.424 26.616 140.398 26.3591 140.371C23.6427 140.102 20.9331 140.057 18.2053 140.037C17.6749 140.031 17.1445 140.025 16.6142 140.018C15.2399 140.002 13.8655 139.99 12.4912 139.978C11.0801 139.965 9.6691 139.949 8.25806 139.933C5.5054 139.903 2.75272 139.876 4.32879e-06 139.852C-0.0374288 138.579 -0.0600459 137.307 -0.0800738 136.035C-0.0908093 135.676 -0.101545 135.318 -0.112606 134.948C-0.137896 132.806 -0.0380266 131.456 1.28125 129.727C2.93925 128.173 4.39847 127.75 6.65728 127.741Z" fill="white"/>
<path d="M-0.000206243 149.344C3.47776 149.314 6.95569 149.292 10.4338 149.278C12.0491 149.272 13.6644 149.263 15.2798 149.248C16.8416 149.234 18.4033 149.227 19.9652 149.224C20.5581 149.221 21.151 149.217 21.7438 149.21C27.4067 149.147 31.9704 150.065 36.2752 153.991C38.3114 156.118 39.5801 158.566 40.3592 161.367C35.7259 161.397 31.0927 161.419 26.4594 161.433C24.3079 161.439 22.1564 161.448 20.0049 161.463C17.9281 161.477 15.8512 161.484 13.7743 161.487C12.9825 161.49 12.1908 161.494 11.399 161.501C10.2887 161.51 9.17864 161.512 8.06829 161.511C7.57892 161.518 7.57892 161.518 7.07967 161.525C4.8818 161.512 3.06009 161.172 1.42275 159.632C0.198148 158.248 -0.0406889 157.222 -0.0314868 155.431C-0.0304545 155.077 -0.0294222 154.723 -0.0283587 154.359C-0.0256748 153.989 -0.022991 153.62 -0.0202258 153.24C-0.018058 152.68 -0.018058 152.68 -0.0158465 152.109C-0.0120683 151.187 -0.00679594 150.266 -0.000206243 149.344Z" fill="white"/>
</g>
<defs>
<clipPath id="clip0_304_558">
<rect width="164" height="162" fill="white"/>
</clipPath>
</defs>
</svg>
