<svg width="168" height="168" viewBox="0 0 168 168" fill="none" xmlns="http://www.w3.org/2000/svg">
<path d="M86.3923 84.2177C86.6625 84.3302 86.9326 84.4427 87.211 84.5586C87.6479 84.7433 87.6479 84.7433 88.0937 84.9317C88.403 85.061 88.7123 85.1903 89.0311 85.3235C90.048 85.7489 91.064 86.1765 92.0799 86.6044C92.7838 86.8999 93.4878 87.1954 94.1918 87.4907C95.2785 87.9466 96.3651 88.4025 97.4515 88.8591C99.9197 89.8958 102.393 90.9198 104.869 91.9377C105.834 92.336 106.799 92.7346 107.764 93.1334C108.38 93.3872 108.996 93.6399 109.613 93.8915C110.471 94.2417 111.327 94.5959 112.183 94.9511C112.435 95.0527 112.686 95.1542 112.946 95.2589C115.641 96.3874 116.474 97.9311 117.604 100.546C117.74 100.854 117.876 101.162 118.017 101.479C118.452 102.467 118.883 103.456 119.314 104.446C119.596 105.088 119.879 105.729 120.161 106.371C121.641 109.733 121.641 109.733 122.181 111.019C122.591 111.969 123.062 112.877 123.545 113.793C126.133 118.893 126.451 123.43 126.332 129.078C126.312 130.244 126.31 131.41 126.306 132.576C126.296 134.772 126.269 136.966 126.236 139.161C126.192 142.137 126.175 145.112 126.156 148.088C126.125 152.757 126.06 157.425 126 162.094C118.528 162.094 111.057 162.094 103.359 162.094C103.359 154.622 103.359 147.151 103.359 139.453C105.2 139.453 107.041 139.453 108.937 139.453C108.937 137.721 108.937 135.988 108.937 134.203C92.3703 134.203 75.8032 134.203 58.7342 134.203C58.7342 135.936 58.7342 137.668 58.7342 139.453C60.5749 139.453 62.4157 139.453 64.3123 139.453C64.3123 146.924 64.3123 154.396 64.3123 162.094C56.7326 162.094 49.1529 162.094 41.3435 162.094C41.1848 151.905 41.1848 151.905 41.1513 147.581C41.1281 144.614 41.101 141.648 41.0465 138.682C41.0068 136.52 40.9817 134.358 40.9731 132.196C40.968 131.055 40.9565 129.915 40.9272 128.774C40.7849 122.516 41.7789 118.006 44.7856 112.501C45.585 110.987 46.2517 109.418 46.9229 107.844C47.1745 107.266 47.4263 106.688 47.6785 106.111C48.0546 105.245 48.4303 104.378 48.8059 103.512C49.1822 102.645 49.5598 101.779 49.9376 100.912C50.0494 100.653 50.1611 100.394 50.2763 100.127C51.8889 96.4319 51.8889 96.4319 53.388 95.8098C53.6474 95.6992 53.9069 95.5887 54.1741 95.4747C54.4675 95.3561 54.761 95.2374 55.0633 95.1151C55.3806 94.9819 55.6979 94.8486 56.0248 94.7113C57.0106 94.2992 57.9984 93.8926 58.9871 93.4877C60.4184 92.9001 61.8472 92.3067 63.2766 91.7147C65.2492 90.898 67.2223 90.0826 69.1973 89.2718C72.0163 88.114 74.8338 86.9558 77.627 85.7366C78.0234 85.5645 78.4198 85.3923 78.8282 85.2149C79.5315 84.9075 80.2332 84.5965 80.933 84.2813C81.2349 84.1495 81.5367 84.0177 81.8477 83.882C82.2269 83.7121 82.2269 83.7121 82.6137 83.5388C83.9446 83.1829 85.1584 83.6998 86.3923 84.2177ZM76.1248 92.8593C75.2114 94.0371 75.3682 95.472 75.3698 96.898C75.3684 97.1617 75.367 97.4255 75.3656 97.6972C75.3637 98.254 75.3635 98.8109 75.365 99.3677C75.366 100.217 75.3583 101.067 75.35 101.917C75.3492 102.459 75.349 103.001 75.3493 103.543C75.3463 103.796 75.3433 104.049 75.3402 104.309C75.3529 105.795 75.4748 106.807 76.4529 107.953C77.7909 108.743 79.1825 108.71 80.6967 108.708C80.9447 108.709 81.1926 108.711 81.448 108.712C81.9706 108.714 82.4932 108.714 83.0158 108.713C83.8116 108.712 84.6069 108.72 85.4026 108.728C85.9121 108.729 86.4216 108.729 86.9311 108.728C87.167 108.731 87.4029 108.735 87.646 108.738C89.1838 108.724 90.2703 108.497 91.5467 107.625C92.3616 106.308 92.3035 104.889 92.3016 103.381C92.3037 103.009 92.3037 103.009 92.3059 102.63C92.3077 102.107 92.3079 101.585 92.3065 101.062C92.3055 100.266 92.3132 99.4709 92.3215 98.6751C92.3222 98.1657 92.3224 97.6562 92.3221 97.1467C92.3251 96.9108 92.3282 96.6749 92.3313 96.4318C92.3173 94.893 92.0679 93.8199 91.2185 92.5311C90.0681 91.5959 88.5958 91.7745 87.1798 91.7762C86.7842 91.7741 86.7842 91.7741 86.3806 91.7719C85.8238 91.7701 85.2669 91.7699 84.7101 91.7713C83.8603 91.7723 83.0109 91.7646 82.1611 91.7563C81.6192 91.7556 81.0772 91.7553 80.5352 91.7557C80.2823 91.7527 80.0293 91.7496 79.7687 91.7465C78.2797 91.7593 77.2874 91.9018 76.1248 92.8593ZM50.8592 112.547C50.021 113.804 50.1026 114.839 50.1042 116.297C50.1028 116.569 50.1014 116.84 50.1 117.12C50.0981 117.694 50.0979 118.268 50.0993 118.842C50.1004 119.719 50.0927 120.595 50.0844 121.472C50.0836 122.03 50.0834 122.588 50.0837 123.147C50.0807 123.408 50.0777 123.669 50.0746 123.938C50.0869 125.426 50.1756 126.464 51.1873 127.641C52.5295 128.435 53.9237 128.392 55.4427 128.384C55.8157 128.385 55.8157 128.385 56.1963 128.386C56.7203 128.386 57.2442 128.385 57.7682 128.382C58.5675 128.379 59.3666 128.382 60.1659 128.386C60.6764 128.386 61.187 128.385 61.6975 128.384C61.9351 128.385 62.1727 128.387 62.4175 128.388C63.7313 128.376 64.8365 128.365 65.9529 127.641C66.8798 126.009 67.0631 124.723 67.068 122.831C67.0694 122.484 67.0694 122.484 67.0709 122.129C67.0715 121.643 67.0698 121.157 67.0656 120.67C67.0603 119.931 67.0656 119.193 67.0719 118.454C67.0712 117.979 67.07 117.503 67.068 117.028C67.0669 116.601 67.0658 116.174 67.0647 115.734C66.9049 114.206 66.6333 112.797 65.4055 111.753C64.2465 111.464 63.1009 111.462 61.9142 111.464C61.5186 111.462 61.5186 111.462 61.115 111.459C60.5582 111.458 60.0013 111.457 59.4445 111.459C58.5947 111.46 57.7453 111.452 56.8955 111.444C56.3535 111.443 55.8116 111.443 55.2696 111.443C55.0166 111.44 54.7637 111.437 54.503 111.434C53.0099 111.447 52.0387 111.611 50.8592 112.547ZM101.39 112.547C100.601 113.885 100.634 115.276 100.635 116.791C100.634 117.039 100.633 117.286 100.631 117.542C100.629 118.064 100.629 118.587 100.631 119.11C100.632 119.905 100.624 120.701 100.616 121.496C100.615 122.006 100.615 122.515 100.615 123.025C100.612 123.261 100.609 123.497 100.606 123.74C100.62 125.278 100.847 126.364 101.719 127.641C103.035 128.455 104.455 128.397 105.962 128.395C106.21 128.397 106.458 128.398 106.714 128.4C107.236 128.402 107.759 128.402 108.281 128.4C109.077 128.399 109.873 128.407 110.668 128.415C111.178 128.416 111.687 128.416 112.197 128.416C112.433 128.419 112.669 128.422 112.912 128.425C114.45 128.411 115.523 128.162 116.812 127.312C117.748 126.162 117.569 124.69 117.567 123.274C117.569 122.878 117.569 122.878 117.571 122.474C117.573 121.918 117.574 121.361 117.572 120.804C117.571 119.954 117.579 119.105 117.587 118.255C117.588 117.713 117.588 117.171 117.588 116.629C117.591 116.376 117.594 116.123 117.597 115.863C117.584 114.374 117.442 113.381 116.484 112.219C115.306 111.305 113.871 111.462 112.445 111.464C112.05 111.462 112.05 111.462 111.646 111.459C111.089 111.458 110.533 111.457 109.976 111.459C109.126 111.46 108.277 111.452 107.427 111.444C106.885 111.443 106.343 111.443 105.801 111.443C105.548 111.44 105.295 111.437 105.034 111.434C103.549 111.447 102.537 111.569 101.39 112.547Z" fill="white"/>
<path d="M88.7441 73.8272C89.2504 74.0305 89.2504 74.0305 89.7669 74.2379C90.8794 74.6855 91.9905 75.1366 93.1016 75.5879C93.8776 75.9008 94.6536 76.2135 95.4297 76.526C97.2637 77.2651 99.0968 78.0065 100.929 78.749C103.003 79.5891 105.078 80.4264 107.154 81.2633C110.707 82.6966 114.26 84.1318 117.811 85.5699C118.108 85.6899 118.404 85.8099 118.71 85.9336C118.993 86.0494 119.277 86.1652 119.569 86.2845C120.155 86.5183 120.745 86.7429 121.337 86.9597C121.776 87.1227 121.776 87.1227 122.223 87.2891C122.484 87.3827 122.745 87.4763 123.014 87.5727C124.26 88.2322 124.777 89.3328 125.293 90.597C125.402 90.8614 125.511 91.1257 125.624 91.3981C125.797 91.827 125.797 91.827 125.974 92.2646C126.16 92.7168 126.16 92.7168 126.35 93.1782C126.754 94.1649 127.156 95.1527 127.559 96.1405C127.978 97.1646 128.397 98.1884 128.817 99.2122C129.101 99.9053 129.385 100.598 129.668 101.292C130.577 103.511 131.497 105.726 132.428 107.936C132.543 108.211 132.659 108.486 132.778 108.769C133.216 109.812 133.655 110.854 134.096 111.894C134.394 112.598 134.69 113.302 134.986 114.007C135.153 114.4 135.319 114.794 135.491 115.2C135.844 116.156 135.844 116.156 135.844 117.141C134.003 117.141 132.162 117.141 130.266 117.141C129.966 116.466 129.666 115.791 129.366 115.116C129.097 114.511 128.828 113.905 128.559 113.3C127.815 111.626 127.07 109.951 126.326 108.277C125.02 105.336 123.713 102.395 122.402 99.4564C122.218 99.043 122.034 98.6295 121.849 98.2161C121.521 97.4784 121.191 96.7409 120.862 96.0036C120.647 95.522 120.647 95.522 120.428 95.0305C120.307 94.7585 120.185 94.4865 120.06 94.2062C119.766 93.5155 119.766 93.5155 119.438 92.5312C118.791 92.2842 118.131 92.0731 117.469 91.8749C116.433 91.4708 115.41 91.0362 114.385 90.606C114.081 90.4789 113.776 90.3519 113.463 90.221C112.804 89.9459 112.146 89.6705 111.487 89.3949C110.445 88.9584 109.401 88.5228 108.358 88.0875C105.024 86.6957 101.69 85.3009 98.3582 83.9037C96.9193 83.3006 95.48 82.6985 94.0406 82.0965C93.3519 81.8081 92.6634 81.5193 91.9752 81.2299C91.0121 80.8251 90.0485 80.4218 89.0847 80.0188C88.802 79.8995 88.5193 79.7802 88.228 79.6572C85.1624 78.2321 85.1624 78.2321 81.9314 78.5991C81.7249 78.6882 81.5185 78.7773 81.3058 78.8691C81.0806 78.96 80.8554 79.0508 80.6234 79.1444C79.8866 79.4437 79.1544 79.7527 78.4219 80.0624C77.9208 80.269 77.4195 80.475 76.9181 80.6807C75.2688 81.3604 73.6255 82.0543 71.9824 82.7489C70.7441 83.2713 69.5055 83.7929 68.2667 84.3139C67.7889 84.515 67.7889 84.515 67.3014 84.72C64.9011 85.7275 62.4929 86.7146 60.0815 87.6952C59.3868 87.9785 58.6922 88.2619 57.9975 88.5454C56.9868 88.9577 55.9758 89.369 54.9632 89.7767C54.0251 90.1544 53.0888 90.5362 52.1526 90.9187C51.874 91.0296 51.5954 91.1404 51.3084 91.2546C48.6271 92.3589 47.7091 93.7137 46.5643 96.3123C46.4391 96.59 46.314 96.8678 46.1851 97.1539C45.7783 98.059 45.3759 98.9659 44.9736 99.873C44.6951 100.495 44.4164 101.118 44.1375 101.74C41.8496 106.854 39.61 111.989 37.4062 117.141C35.4572 117.141 33.5081 117.141 31.5 117.141C33.6393 111.691 35.8731 106.282 38.124 100.878C38.2654 100.538 38.4067 100.198 38.5523 99.8483C38.9674 98.851 39.3832 97.8539 39.7993 96.857C39.9812 96.4199 39.9812 96.4199 40.1668 95.9739C40.4158 95.3786 40.6728 94.7866 40.9368 94.1979C41.2502 93.4198 41.4712 92.7206 41.6756 91.915C42.3224 89.6728 43.1037 88.1244 45.1885 86.946C47.2288 85.9522 49.3504 85.178 51.4785 84.396C52.2609 84.0927 53.0427 83.7878 53.8239 83.4813C55.6664 82.7628 57.5146 82.0614 59.3667 81.368C61.4605 80.5831 63.5462 79.7776 65.6314 78.9699C69.203 77.5866 72.7792 76.216 76.3648 74.8692C76.6651 74.7559 76.9654 74.6425 77.2747 74.5256C77.5683 74.4152 77.8619 74.3048 78.1643 74.1911C78.8163 73.932 79.4612 73.6545 80.1002 73.3649C83.5081 71.8294 85.4044 72.4622 88.7441 73.8272Z" fill="white"/>
<path d="M36.642 30.5934C41.0112 34.1074 43.8993 38.6897 44.625 44.297C44.625 46.1378 44.625 47.9786 44.625 49.8751C31.523 49.8751 18.4209 49.8751 4.92188 49.8751C4.92188 42.951 5.60482 37.942 10.3641 32.928C17.431 26.0441 28.4347 24.5183 36.642 30.5934ZM14.417 37.3038C13.6346 38.1053 13.3228 38.6515 12.7969 39.7032C15.0708 41.0026 15.0708 41.0026 17.3906 42.3282C17.8237 41.7868 18.2569 41.2454 18.7031 40.6876C20.2193 39.4312 21.7689 38.8391 23.6955 38.5087C24.2867 38.4459 24.2867 38.4459 24.6094 38.0626C24.6334 37.1778 24.6397 36.3016 24.6299 35.4171C24.6284 35.1682 24.6269 34.9193 24.6254 34.6628C24.6215 34.0461 24.6156 33.4293 24.6094 32.8126C20.5898 32.8126 17.2742 34.5588 14.417 37.3038Z" fill="white"/>
<path d="M4.92188 55.125C18.0239 55.125 31.1259 55.125 44.625 55.125C44.625 60.7556 44.625 66.3862 44.625 72.1875C31.523 72.1875 18.4209 72.1875 4.92188 72.1875C4.92188 66.5569 4.92188 60.9262 4.92188 55.125ZM10.8281 61.0312C10.8281 62.7638 10.8281 64.4963 10.8281 66.2812C12.5606 66.2812 14.2931 66.2812 16.0781 66.2812C16.0781 64.5487 16.0781 62.8162 16.0781 61.0312C14.3456 61.0312 12.6131 61.0312 10.8281 61.0312Z" fill="white"/>
<path d="M4.92188 77.4375C18.0239 77.4375 31.1259 77.4375 44.625 77.4375C44.625 78.9534 44.625 80.4694 44.625 82.0313C42 83.3438 42 83.3438 40.9964 83.7552C39.792 84.4701 39.4905 85.0757 38.9033 86.3379C38.81 86.5351 38.7167 86.7323 38.6205 86.9354C37.6325 89.0589 36.7595 91.2347 35.8912 93.4092C35.4375 94.5 35.4375 94.5 35.1094 94.8281C34.1706 94.8594 33.2398 94.8693 32.301 94.8654C32.0065 94.8654 31.712 94.8655 31.4086 94.8655C30.4304 94.8653 29.4521 94.8627 28.4738 94.8602C27.7975 94.8596 27.1211 94.8591 26.4448 94.8588C24.6609 94.8575 22.877 94.8543 21.0931 94.8507C18.9547 94.8467 16.8163 94.8452 14.6779 94.8433C11.4259 94.8401 8.1739 94.8338 4.92188 94.8281C4.92188 89.0892 4.92188 83.3503 4.92188 77.4375ZM10.8281 83.3438C10.8281 85.1845 10.8281 87.0253 10.8281 88.9219C12.5606 88.9219 14.2931 88.9219 16.0781 88.9219C16.0781 87.0811 16.0781 85.2403 16.0781 83.3438C14.3456 83.3438 12.6131 83.3438 10.8281 83.3438Z" fill="white"/>
<path d="M4.92188 122.391C15.2086 122.391 25.4953 122.391 36.0938 122.391C36.0938 128.13 36.0938 133.868 36.0938 139.781C25.807 139.781 15.5203 139.781 4.92188 139.781C4.92188 134.042 4.92188 128.303 4.92188 122.391ZM10.8281 128.625C10.8281 130.358 10.8281 132.09 10.8281 133.875C12.5606 133.875 14.2931 133.875 16.0781 133.875C16.0781 132.142 16.0781 130.41 16.0781 128.625C14.3456 128.625 12.6131 128.625 10.8281 128.625Z" fill="white"/>
<path d="M4.92188 145.031C15.2086 145.031 25.4953 145.031 36.0938 145.031C36.0938 150.662 36.0938 156.292 36.0938 162.094C25.807 162.094 15.5203 162.094 4.92188 162.094C4.92188 156.463 4.92188 150.832 4.92188 145.031ZM10.8281 150.938C10.8281 152.67 10.8281 154.403 10.8281 156.188C12.5606 156.188 14.2931 156.188 16.0781 156.188C16.0781 154.455 16.0781 152.722 16.0781 150.938C14.3456 150.938 12.6131 150.938 10.8281 150.938Z" fill="white"/>
<path d="M131.578 135.188C135.27 136.295 135.27 136.295 136.938 136.971C137.31 137.121 137.683 137.271 138.066 137.426C138.651 137.664 138.651 137.664 139.248 137.907C139.661 138.074 140.074 138.241 140.487 138.408C141.564 138.844 142.64 139.281 143.716 139.719C144.598 140.077 145.481 140.434 146.363 140.791C148.184 141.527 150.004 142.265 151.823 143.004C152.144 143.135 152.465 143.265 152.796 143.399C153.277 143.6 153.753 143.814 154.219 144.047C154.219 150.002 154.219 155.958 154.219 162.094C146.747 162.094 139.276 162.094 131.578 162.094C131.578 153.215 131.578 144.336 131.578 135.188ZM140.109 145.359C140.109 148.066 140.109 150.773 140.109 153.562C141.95 153.562 143.791 153.562 145.688 153.562C145.688 150.855 145.688 148.148 145.688 145.359C143.847 145.359 142.006 145.359 140.109 145.359Z" fill="white"/>
<path d="M4.92188 100.078C14.1258 100.078 23.3297 100.078 32.8125 100.078C32.1404 102.318 31.4439 104.398 30.5233 106.528C30.4017 106.813 30.28 107.098 30.1547 107.392C29.7708 108.291 29.3844 109.188 28.998 110.086C28.7364 110.698 28.4749 111.31 28.2136 111.921C27.7379 113.034 27.2618 114.146 26.7837 115.257C26.6883 115.479 26.5929 115.701 26.4946 115.929C26.3145 116.338 26.1216 116.741 25.9219 117.141C18.9919 117.141 12.0619 117.141 4.92188 117.141C4.92188 111.51 4.92188 105.879 4.92188 100.078ZM10.8281 105.984C10.8281 107.717 10.8281 109.449 10.8281 111.234C12.5606 111.234 14.2931 111.234 16.0781 111.234C16.0781 109.502 16.0781 107.769 16.0781 105.984C14.3456 105.984 12.6131 105.984 10.8281 105.984Z" fill="white"/>
<path d="M131.578 123.703C137.378 125.833 143.155 128.013 148.916 130.244C149.949 130.644 150.982 131.043 152.014 131.442C153.023 131.831 154.032 132.221 155.04 132.611C155.587 132.822 155.587 132.822 156.145 133.038C157.144 133.425 158.142 133.813 159.141 134.203C159.622 134.391 159.622 134.391 160.113 134.582C160.56 134.758 160.56 134.758 161.017 134.938C161.281 135.042 161.544 135.146 161.816 135.252C162.422 135.516 162.422 135.516 162.75 135.844C162.774 136.784 162.78 137.714 162.771 138.653C162.767 139.147 162.763 139.641 162.76 140.135C162.756 140.56 162.753 140.984 162.75 141.422C158.6 139.998 154.508 138.442 150.421 136.845C148.651 136.154 146.88 135.466 145.109 134.777C144.763 134.643 144.416 134.508 144.059 134.369C139.909 132.756 135.746 131.177 131.578 129.609C131.578 127.66 131.578 125.711 131.578 123.703Z" fill="white"/>
<path d="M135.844 27.8907C137.933 29.3215 139.529 30.9569 140.109 33.4688C140.483 36.6751 139.973 38.7046 138.14 41.2823C137.518 41.9632 136.958 42.5025 136.172 42.9844C135.847 42.9844 135.522 42.9844 135.187 42.9844C135.149 42.7311 135.111 42.4779 135.072 42.2169C134.899 41.0712 134.726 39.9258 134.552 38.7803C134.462 38.1823 134.462 38.1823 134.37 37.5723C134.312 37.1905 134.254 36.8088 134.194 36.4155C134.141 36.0633 134.087 35.711 134.033 35.3481C133.893 34.4265 133.893 34.4265 133.547 33.4688C133.147 33.3808 132.748 33.2928 132.337 33.2022C132.112 33.1527 131.888 33.1032 131.656 33.0522C130.85 33.0927 130.85 33.0927 130.049 33.729C128.958 35.2245 128.883 36.6208 128.707 38.4317C128.634 39.082 128.561 39.7323 128.486 40.3825C128.457 40.6693 128.428 40.9561 128.398 41.2517C128.297 42 128.297 42 127.969 42.9844C126.555 42.8274 125.924 42.057 125.015 41.0157C123.397 38.7302 122.803 36.9349 123.047 34.125C123.515 31.748 124.589 29.8921 126.569 28.4649C129.582 26.6517 132.681 26.2932 135.844 27.8907Z" fill="white"/>
<path d="M101.719 38.0625C107.133 38.0625 112.547 38.0625 118.125 38.0625C118.287 39.1995 118.287 39.1995 118.453 40.3594C118.111 40.5468 117.768 40.7341 117.415 40.9272C114.121 42.7386 110.872 44.6125 107.654 46.5555C107.36 46.7314 107.066 46.9073 106.764 47.0885C106.502 47.2463 106.241 47.4041 105.972 47.5667C105.328 47.9062 105.328 47.9062 104.672 47.9062C104.176 46.5129 103.685 45.1179 103.195 43.7227C103.054 43.3268 102.914 42.9308 102.768 42.5229C102.635 42.1423 102.502 41.7616 102.365 41.3694C102.179 40.8436 102.179 40.8436 101.99 40.3071C101.719 39.375 101.719 39.375 101.719 38.0625Z" fill="white"/>
<path d="M128.297 80.3906C130.462 80.3906 132.628 80.3906 134.859 80.3906C135.134 82.3459 135.408 84.3012 135.682 86.2566C135.775 86.9208 135.869 87.5849 135.962 88.249C136.097 89.2077 136.231 90.1664 136.365 91.1252C136.407 91.4186 136.448 91.712 136.491 92.0142C136.743 93.8246 136.962 95.6355 137.156 97.4531C135.965 97.4531 134.774 97.4531 133.547 97.4531C133.001 96.3034 132.467 95.1513 131.944 93.9915C131.674 93.3985 131.401 92.8072 131.125 92.2169C130.617 91.1227 130.123 90.0229 129.63 88.9219C129.463 88.5679 129.296 88.2139 129.124 87.8492C127.944 85.1707 127.881 83.2873 128.297 80.3906Z" fill="white"/>
<path d="M145.359 38.0625C150.557 38.0625 155.754 38.0625 161.109 38.0625C160.845 39.4972 160.582 40.932 160.31 42.4102C160.186 43.086 160.186 43.086 160.059 43.7755C159.993 44.132 159.927 44.4885 159.86 44.8557C159.793 45.22 159.726 45.5843 159.657 45.9596C159.507 46.7266 159.341 47.4793 159.141 48.2344C157.831 47.7485 156.656 47.1297 155.445 46.4348C155.252 46.3239 155.058 46.213 154.858 46.0987C154.449 45.8642 154.04 45.6292 153.631 45.3937C153.017 45.0398 152.402 44.6874 151.787 44.3353C150.626 43.6703 149.469 42.9999 148.312 42.3281C147.978 42.135 147.644 41.942 147.299 41.743C147.002 41.569 146.705 41.3949 146.399 41.2156C146.011 40.9895 146.011 40.9895 145.616 40.759C145.031 40.3594 145.031 40.3594 144.703 39.7031C144.92 39.1617 145.136 38.6203 145.359 38.0625Z" fill="white"/>
<path d="M121.479 44.8205C122.062 45.2812 122.062 45.2812 122.368 45.864C122.401 46.9305 121.981 47.5146 121.438 48.4266C121.123 48.9631 121.123 48.9631 120.802 49.5105C120.573 49.8918 120.344 50.2731 120.114 50.6543C119.886 51.0409 119.657 51.4277 119.43 51.8147C118.982 52.5747 118.532 53.3333 118.081 54.0913C117.323 55.3712 116.582 56.6607 115.849 57.9551C115.649 58.3044 115.45 58.6538 115.245 59.0138C115.113 59.2464 114.98 59.4791 114.844 59.7187C113.315 58.9025 112.152 57.8249 110.906 56.6426C110.708 56.4573 110.51 56.272 110.306 56.0812C109.173 55.0167 108.062 53.9337 106.969 52.8281C109.136 51.3289 111.373 50.0061 113.675 48.7266C114.317 48.3681 114.959 48.0092 115.601 47.6499C116.068 47.391 116.068 47.391 116.543 47.1269C117.739 46.4379 118.891 45.6854 120.037 44.9166C120.75 44.625 120.75 44.625 121.479 44.8205Z" fill="white"/>
<path d="M141.75 44.625C143.109 45.0396 144.273 45.5461 145.495 46.2695C145.826 46.4642 146.158 46.659 146.499 46.8597C146.84 47.0629 147.182 47.2662 147.533 47.4756C147.867 47.6725 148.201 47.8694 148.544 48.0722C149.217 48.4693 149.89 48.867 150.562 49.2654C152.214 50.2417 153.873 51.2069 155.531 52.1719C155.248 53.6668 154.365 54.4927 153.337 55.5557C152.977 55.9347 152.618 56.3141 152.259 56.6938C152.087 56.8753 151.915 57.0568 151.737 57.2437C151.159 57.8646 150.615 58.5096 150.076 59.165C149.819 59.456 149.562 59.7471 149.297 60.0469C149.08 60.0469 148.864 60.0469 148.641 60.0469C146.586 56.4959 146.586 56.4959 145.688 54.9332C145.463 54.5417 145.238 54.1502 145.013 53.7587C144.902 53.5648 144.791 53.371 144.676 53.1713C144.031 52.0504 143.376 50.9358 142.711 49.8263C142.57 49.5873 142.43 49.3483 142.284 49.1021C142.03 48.6707 141.771 48.2415 141.508 47.8152C141.174 47.2423 141.174 47.2423 140.766 46.2656C140.994 45.5231 141.21 45.1651 141.75 44.625Z" fill="white"/>
<path d="M134.203 6.23438C136.52 6.4661 138.686 6.74468 140.95 7.19824C141.246 7.25386 141.541 7.30948 141.845 7.36679C142.126 7.42241 142.406 7.47803 142.695 7.53534C142.947 7.5848 143.199 7.63426 143.459 7.68522C143.75 7.77916 143.75 7.77916 144.047 7.875C144.155 8.09156 144.263 8.30813 144.375 8.53125C144.007 9.31079 144.007 9.31079 143.434 10.2885C143.122 10.8256 143.122 10.8256 142.803 11.3736C142.575 11.7592 142.347 12.1448 142.119 12.5303C141.891 12.9194 141.662 13.3086 141.434 13.6979C140.983 14.4674 140.53 15.236 140.076 16.0041C139.547 16.9023 139.028 17.8044 138.514 18.7108C138.259 19.1526 138.005 19.5944 137.751 20.0361C137.537 20.4122 137.322 20.7882 137.101 21.1756C136.5 21.9844 136.5 21.9844 135.827 22.2907C135.188 22.3125 135.188 22.3125 134.203 21.9844C134.203 16.7869 134.203 11.5894 134.203 6.23438Z" fill="white"/>
<path d="M114.188 10.8281C115.174 12.0033 115.963 13.2009 116.719 14.5349C116.83 14.7295 116.94 14.9241 117.055 15.1246C117.406 15.7425 117.755 16.3615 118.104 16.9805C118.337 17.3907 118.57 17.8009 118.804 18.2109C119.252 19.0002 119.698 19.791 120.142 20.5828C120.518 21.2464 120.9 21.9065 121.292 22.5605C121.445 22.8187 121.598 23.077 121.756 23.343C121.888 23.5597 122.021 23.7764 122.157 23.9996C122.449 24.7628 122.33 25.164 122.062 25.9219C121.066 26.2269 120.571 26.3104 119.591 25.9124C119.301 25.737 119.011 25.5617 118.712 25.381C118.387 25.1875 118.062 24.9941 117.726 24.7947C117.384 24.5847 117.042 24.3746 116.689 24.1582C116.34 23.9486 115.99 23.7389 115.629 23.5229C114.599 22.9047 113.573 22.2807 112.547 21.6562C112.01 21.3343 111.472 21.0129 110.934 20.6924C109.829 20.0334 108.726 19.37 107.625 18.7031C108.144 17.4762 108.915 16.6371 109.819 15.668C111.047 14.3405 112.256 13.0016 113.44 11.6356C113.682 11.3595 113.928 11.0874 114.188 10.8281Z" fill="white"/>
<path d="M148.312 11.4844C149.274 11.9229 149.994 12.4142 150.773 13.125C151.956 14.184 153.162 15.2082 154.383 16.2217C154.56 16.3691 154.738 16.5165 154.92 16.6684C155.343 17.0188 155.765 17.3688 156.187 17.7188C155.745 19.0475 155.167 19.1899 153.956 19.8669C153.762 19.9766 153.568 20.0863 153.368 20.1993C152.744 20.5511 152.118 20.8987 151.491 21.2461C150.88 21.5885 150.27 21.9317 149.66 22.275C149.257 22.5014 148.853 22.7269 148.449 22.9514C147.466 23.4981 146.495 24.0555 145.538 24.6459C145.19 24.8589 144.842 25.0718 144.484 25.2913C144.177 25.4838 143.87 25.6764 143.554 25.8748C142.734 26.25 142.734 26.25 142.01 26.2279C141.422 25.9219 141.422 25.9219 140.954 25.3597C140.766 24.6094 140.766 24.6094 141.101 23.7501C141.294 23.4288 141.487 23.1075 141.686 22.7765C141.897 22.4188 142.108 22.0611 142.325 21.6926C142.557 21.3113 142.789 20.93 143.021 20.5488C143.252 20.1623 143.481 19.7755 143.71 19.3884C144.161 18.6281 144.614 17.8696 145.069 17.1118C145.833 15.8338 146.575 14.544 147.308 13.248C147.507 12.8987 147.706 12.5493 147.911 12.1893C148.044 11.9567 148.176 11.7241 148.312 11.4844Z" fill="white"/>
<path d="M128.953 5.57812C128.953 10.9922 128.953 16.4062 128.953 21.9844C127.979 22.1468 127.979 22.1468 126.984 22.3125C125.993 20.676 125.011 19.0344 124.031 17.3906C123.836 17.0639 123.641 16.7371 123.441 16.4005C122.808 15.3374 122.178 14.2725 121.55 13.207C121.342 12.8593 121.135 12.5117 120.922 12.1534C120.729 11.8261 120.537 11.4987 120.339 11.1614C120.165 10.8679 119.991 10.5745 119.812 10.2722C119.438 9.51562 119.438 9.51562 119.438 8.53125C120.838 8.03659 122.24 7.54532 123.642 7.05469C124.04 6.91384 124.439 6.77299 124.85 6.62787C125.231 6.49463 125.613 6.3614 126.006 6.22412C126.359 6.1004 126.711 5.97668 127.074 5.84921C127.969 5.57812 127.969 5.57812 128.953 5.57812Z" fill="white"/>
<path d="M158.812 23.625C159.195 24.5056 159.195 24.5056 159.555 25.6668C159.672 26.039 159.79 26.4113 159.911 26.7948C160.056 27.2715 160.201 27.7481 160.351 28.2392C161.051 30.503 161.051 30.503 161.766 32.8125C156.352 32.8125 150.938 32.8125 145.359 32.8125C145.143 32.1628 144.926 31.5131 144.703 30.8437C145.271 30.5156 145.84 30.1875 146.408 29.8594C146.77 29.6504 147.131 29.4415 147.504 29.2262C148.29 28.7727 149.076 28.3198 149.862 27.8675C152.333 26.4461 152.333 26.4461 154.789 24.999C155.106 24.8118 155.106 24.8118 155.429 24.6209C155.963 24.3048 156.495 23.9855 157.027 23.666C157.828 23.2969 157.828 23.2969 158.812 23.625Z" fill="white"/>
<path d="M104.016 22.9688C105.316 23.1614 106.239 23.5616 107.366 24.23C107.691 24.4213 108.017 24.6127 108.352 24.8098C108.694 25.0144 109.036 25.2189 109.389 25.4297C109.738 25.6364 110.088 25.843 110.449 26.056C111.478 26.6649 112.505 27.2772 113.531 27.8906C113.951 28.1411 113.951 28.1411 114.38 28.3966C115.741 29.2078 117.098 30.0231 118.453 30.8438C118.345 31.4934 118.237 32.1431 118.125 32.8125C112.927 32.8125 107.73 32.8125 102.375 32.8125C102.744 29.1211 102.744 29.1211 103.022 27.7753C103.08 27.4898 103.139 27.2043 103.199 26.9101C103.288 26.4818 103.288 26.4818 103.38 26.0449C103.441 25.7467 103.502 25.4485 103.565 25.1413C103.714 24.4168 103.864 23.6926 104.016 22.9688Z" fill="white"/>
<path d="M88.5938 139.453C91.7339 139.453 94.8741 139.453 98.1094 139.453C98.1094 144.542 98.1094 149.632 98.1094 154.875C97.8928 154.875 97.6763 154.875 97.4531 154.875C97.037 154.26 96.6536 153.622 96.2842 152.978C96.17 152.781 96.0559 152.584 95.9382 152.38C95.5661 151.737 95.1971 151.091 94.8281 150.445C94.324 149.571 93.818 148.697 93.3118 147.824C93.1876 147.61 93.0635 147.395 92.9355 147.174C91.8304 145.269 90.6759 143.399 89.4775 141.551C88.5938 140.175 88.5938 140.175 88.5938 139.453Z" fill="white"/>
<path d="M69.5625 139.453C72.7027 139.453 75.8428 139.453 79.0781 139.453C78.1218 141.366 77.2266 143.155 76.1263 144.961C76.0095 145.153 75.8926 145.345 75.7723 145.543C75.5283 145.944 75.2838 146.345 75.0386 146.745C74.6693 147.348 74.3021 147.952 73.9352 148.557C70.9455 153.469 70.9455 153.469 69.8906 154.875C69.7823 154.875 69.6741 154.875 69.5625 154.875C69.5625 149.786 69.5625 144.697 69.5625 139.453Z" fill="white"/>
<path d="M80.7188 146.672C80.827 146.672 80.9353 146.672 81.0469 146.672C81.0469 151.761 81.0469 156.85 81.0469 162.094C78.015 162.094 74.9831 162.094 71.8594 162.094C72.4009 160.74 72.973 159.61 73.7076 158.361C73.8243 158.163 73.941 157.964 74.0612 157.759C74.3083 157.338 74.556 156.918 74.8042 156.498C75.1747 155.871 75.5436 155.243 75.9122 154.615C77.116 152.567 78.3327 150.526 79.5677 148.497C79.7813 148.146 79.9948 147.794 80.2149 147.432C80.3811 147.181 80.5474 146.93 80.7188 146.672Z" fill="white"/>
<path d="M86.625 146.672C87.629 147.927 88.4096 149.051 89.2051 150.427C89.3216 150.628 89.4382 150.828 89.5582 151.034C89.9284 151.671 90.2969 152.309 90.665 152.947C91.1482 153.783 91.6323 154.617 92.1172 155.452C92.2345 155.654 92.3518 155.856 92.4727 156.065C93.4037 157.66 94.3908 159.215 95.4103 160.755C95.8125 161.438 95.8125 161.438 95.8125 162.094C92.7806 162.094 89.7488 162.094 86.625 162.094C86.625 157.005 86.625 151.915 86.625 146.672Z" fill="white"/>
<path d="M126.984 48.8906C127.39 49.7022 127.294 50.055 127.169 50.9467C127.13 51.2357 127.09 51.5247 127.05 51.8225C127.005 52.1349 126.96 52.4473 126.914 52.7692C126.87 53.0887 126.826 53.4082 126.78 53.7374C126.638 54.7608 126.493 55.7837 126.349 56.8066C126.252 57.4992 126.156 58.1917 126.06 58.8843C125.823 60.5847 125.584 62.2846 125.344 63.9844C124.774 63.9383 124.205 63.8905 123.635 63.8421C123.318 63.8157 123.001 63.7893 122.674 63.7621C121.44 63.6231 120.303 63.3378 119.109 63C119.333 61.8397 119.805 60.9415 120.382 59.9149C120.575 59.5703 120.768 59.2258 120.967 58.8709C121.173 58.5078 121.379 58.1446 121.591 57.7705C121.799 57.4019 122.006 57.0333 122.22 56.6535C126.133 49.7423 126.133 49.7423 126.984 48.8906Z" fill="white"/>
<path d="M136.172 48.8906C137.581 50.4781 138.532 52.3153 139.555 54.1611C139.934 54.8398 140.313 55.5182 140.692 56.1965C140.874 56.5212 141.055 56.8458 141.242 57.1803C142.04 58.5907 142.876 59.976 143.726 61.3555C143.832 61.5734 143.938 61.7912 144.047 62.0156C143.719 62.6719 143.719 62.6719 142.633 63.0948C142.182 63.2435 141.73 63.3895 141.278 63.5332C140.936 63.6461 140.936 63.6461 140.588 63.7614C138.893 64.3125 138.893 64.3125 138.14 64.3125C137.539 61.8695 137.19 59.4102 136.874 56.9169C136.787 56.2313 136.697 55.5461 136.606 54.861C136.549 54.4184 136.492 53.9757 136.436 53.5331C136.385 53.1378 136.334 52.7424 136.282 52.3351C136.171 51.1794 136.153 50.0509 136.172 48.8906Z" fill="white"/>
<path d="M106.312 116.812C108.262 116.812 110.211 116.812 112.219 116.812C112.219 118.762 112.219 120.711 112.219 122.719C110.27 122.719 108.321 122.719 106.312 122.719C106.312 120.77 106.312 118.821 106.312 116.812Z" fill="white"/>
<path d="M55.4531 116.812C57.4022 116.812 59.3512 116.812 61.3594 116.812C61.3594 118.762 61.3594 120.711 61.3594 122.719C59.4103 122.719 57.4613 122.719 55.4531 122.719C55.4531 120.77 55.4531 118.821 55.4531 116.812Z" fill="white"/>
<path d="M80.7188 97.125C82.6678 97.125 84.6169 97.125 86.625 97.125C86.625 99.0741 86.625 101.023 86.625 103.031C84.6759 103.031 82.7269 103.031 80.7188 103.031C80.7188 101.082 80.7188 99.1331 80.7188 97.125Z" fill="white"/>
<path d="M129.609 71.2031C130.074 71.2498 130.539 71.298 131.004 71.3467C131.392 71.3867 131.392 71.3867 131.788 71.4274C132.563 71.5312 132.563 71.5312 133.875 71.8594C133.983 72.9422 134.092 74.025 134.203 75.1406C132.579 75.1406 130.955 75.1406 129.281 75.1406C129.237 72.5039 129.237 72.5039 129.609 71.2031Z" fill="white"/>
<path d="M135.844 102.703C136.493 102.703 137.143 102.703 137.812 102.703C138.029 104.544 138.246 106.385 138.469 108.281C137.462 107.275 137.128 106.606 136.603 105.308C136.459 104.959 136.316 104.61 136.168 104.25C135.844 103.359 135.844 103.359 135.844 102.703Z" fill="white"/>
</svg>
